<svg xmlns="http://www.w3.org/2000/svg" xmlns:xlink="http://www.w3.org/1999/xlink" viewBox="0 0 121.72 111.4">
    <defs>
        <style>
            .cls-1 {
                fill: url(#linear-gradient);
            }

            .cls-2 {
                fill: url(#linear-gradient-2);
            }

            .text {
                fill: #29313f
            }
        </style>
        <linearGradient id="linear-gradient" x1="0.06" y1="66.27" x2="121.66" y2="66.27" gradientUnits="userSpaceOnUse">
            <stop offset="0" stop-color="#00b4ec" />
            <stop offset="1" stop-color="#1f73b8" />
        </linearGradient>
        <linearGradient id="linear-gradient-2" y1="19.44" x2="121.72" y2="19.44" gradientUnits="userSpaceOnUse">
            <stop offset="0" stop-color="#1f73b8" />
            <stop offset="1" stop-color="#00b4ec" />
        </linearGradient>
    </defs>
    <g id="Layer_2" data-name="Layer 2">
        <g id="Layer_1-2" data-name="Layer 1">
            <path class="text"
                d="M14.83,110.36a10.42,10.42,0,0,1-4.9,1,7.89,7.89,0,0,1-6-2.44,9,9,0,0,1-2.28-6.39,9.42,9.42,0,0,1,2.56-6.88,8.72,8.72,0,0,1,6.49-2.62,10.34,10.34,0,0,1,4.18.73V96A8.56,8.56,0,0,0,10.63,95a6.43,6.43,0,0,0-5,2,7.67,7.67,0,0,0-1.9,5.45,7.36,7.36,0,0,0,1.77,5.17,6,6,0,0,0,4.66,1.92,8.73,8.73,0,0,0,4.62-1.19Z" />
            <path class="text"
                d="M23.46,111.4A5.89,5.89,0,0,1,19,109.62a6.55,6.55,0,0,1-1.68-4.7,6.84,6.84,0,0,1,1.75-5,6.28,6.28,0,0,1,4.71-1.79,5.7,5.7,0,0,1,4.42,1.74,6.94,6.94,0,0,1,1.59,4.84,6.75,6.75,0,0,1-1.72,4.85A6,6,0,0,1,23.46,111.4Zm.15-11.55a3.85,3.85,0,0,0-3.09,1.33,5.42,5.42,0,0,0-1.14,3.66,5.14,5.14,0,0,0,1.15,3.55,3.9,3.9,0,0,0,3.08,1.3,3.72,3.72,0,0,0,3-1.27,5.51,5.51,0,0,0,1.06-3.63,5.6,5.6,0,0,0-1.06-3.66A3.7,3.7,0,0,0,23.61,99.85Z" />
            <path class="text"
                d="M43.51,111.1h-2v-7.22q0-4-3-4A3.18,3.18,0,0,0,36,101a4.22,4.22,0,0,0-1,2.89v7.22H33V98.44h2v2.1h0a4.57,4.57,0,0,1,4.16-2.4,3.87,3.87,0,0,1,3.17,1.34,6,6,0,0,1,1.1,3.88Z" />
            <path class="text"
                d="M57.84,111.1h-2v-7.22q0-4-3-4A3.18,3.18,0,0,0,50.36,101a4.22,4.22,0,0,0-1,2.89v7.22h-2V98.44h2v2.1h0a4.57,4.57,0,0,1,4.16-2.4,3.87,3.87,0,0,1,3.17,1.34,6,6,0,0,1,1.1,3.88Z" />
            <path class="text"
                d="M71.84,105.27H62.9A4.72,4.72,0,0,0,64,108.54a3.9,3.9,0,0,0,3,1.15A6.2,6.2,0,0,0,71,108.28v1.9a7.32,7.32,0,0,1-4.41,1.22,5.36,5.36,0,0,1-4.22-1.73,7.07,7.07,0,0,1-1.53-4.85A7,7,0,0,1,62.47,100a5.39,5.39,0,0,1,4.16-1.86,4.78,4.78,0,0,1,3.85,1.61,6.68,6.68,0,0,1,1.36,4.46Zm-2.08-1.71a4.21,4.21,0,0,0-.84-2.74,2.89,2.89,0,0,0-2.32-1,3.29,3.29,0,0,0-2.44,1,4.62,4.62,0,0,0-1.23,2.69Z" />
            <path class="text"
                d="M83.54,110.52a6.68,6.68,0,0,1-3.47.88,5.73,5.73,0,0,1-4.37-1.77A6.4,6.4,0,0,1,74,105.06a7,7,0,0,1,1.79-5,6.27,6.27,0,0,1,4.79-1.9,6.69,6.69,0,0,1,2.94.62v2.08a5.14,5.14,0,0,0-3-1,4.07,4.07,0,0,0-3.18,1.39,5.26,5.26,0,0,0-1.24,3.65,5,5,0,0,0,1.17,3.51,4,4,0,0,0,3.13,1.29,5.14,5.14,0,0,0,3.12-1.1Z" />
            <path class="text"
                d="M92.48,111a3.86,3.86,0,0,1-1.9.4q-3.31,0-3.32-3.71v-7.49H85.08V98.44h2.18V95.35l2-.66v3.75h3.19v1.73H89.29v7.13a3,3,0,0,0,.43,1.82,1.72,1.72,0,0,0,1.43.54,2.17,2.17,0,0,0,1.33-.42Z" />
            <path class="text"
                d="M105.36,105.27H96.42a4.72,4.72,0,0,0,1.14,3.27,3.9,3.9,0,0,0,3,1.15,6.22,6.22,0,0,0,3.93-1.41v1.9a7.32,7.32,0,0,1-4.41,1.22,5.36,5.36,0,0,1-4.22-1.73,7.07,7.07,0,0,1-1.53-4.85A7,7,0,0,1,96,100a5.39,5.39,0,0,1,4.16-1.86A4.78,4.78,0,0,1,104,99.75a6.73,6.73,0,0,1,1.36,4.46Zm-2.08-1.71a4.16,4.16,0,0,0-.85-2.74,2.87,2.87,0,0,0-2.31-1,3.29,3.29,0,0,0-2.44,1,4.69,4.69,0,0,0-1.24,2.69Z" />
            <path class="text"
                d="M119.23,111.1h-2V109h0a5.09,5.09,0,0,1-8.16.74,6.91,6.91,0,0,1-1.43-4.63,7.61,7.61,0,0,1,1.58-5,5.23,5.23,0,0,1,4.22-1.89,4.06,4.06,0,0,1,3.79,2h0V92.35h2Zm-2-5.73v-1.86a3.64,3.64,0,0,0-1-2.6,3.39,3.39,0,0,0-2.57-1.06,3.49,3.49,0,0,0-2.92,1.36,5.94,5.94,0,0,0-1.06,3.76,5.35,5.35,0,0,0,1,3.45,3.31,3.31,0,0,0,2.73,1.27,3.48,3.48,0,0,0,2.76-1.23A4.56,4.56,0,0,0,117.2,105.37Z" />
            <path class="cls-1"
                d="M120.41,49.11v0A5.73,5.73,0,0,0,115.94,47H74.77a3.34,3.34,0,0,0-3.28,2.81,29.17,29.17,0,0,1-1.33,5.36,31.84,31.84,0,0,1-9.55,14,32.27,32.27,0,0,1-9.27-14,32.68,32.68,0,0,1-1.25-5.31A3.36,3.36,0,0,0,46.79,47h-41a5.74,5.74,0,0,0-4.49,2.18A5.65,5.65,0,0,0,.2,53.93c.11.43.23.87.34,1.32a40.64,40.64,0,0,0,60,24.27,40.62,40.62,0,0,0,60.68-24.27c.09-.34.17-.68.28-1.19l.06-.23A5.61,5.61,0,0,0,120.41,49.11Zm-38.55,28a31.7,31.7,0,0,1-14-3.21A40.43,40.43,0,0,0,78.75,56.05a.91.91,0,0,1,.87-.63H111a1,1,0,0,1,.76.38,1,1,0,0,1,.09.82A32.35,32.35,0,0,1,81.86,77.13ZM53.25,73.81A32.23,32.23,0,0,1,9.94,56.64a.91.91,0,0,1,.85-1.22H41.9a.91.91,0,0,1,.87.65A40.37,40.37,0,0,0,53.25,73.81Z" />
            <path class="cls-2"
                d="M121.57,32c-.1-.44-.21-.91-.34-1.37a40.67,40.67,0,0,0-60-24.56A40.67,40.67,0,0,0,.46,30.61c-.11.46-.22.93-.34,1.46a5.64,5.64,0,0,0,1.14,4.7,5.7,5.7,0,0,0,4.47,2.11H46.9a3.32,3.32,0,0,0,3.28-2.81,30.13,30.13,0,0,1,1.29-5.34,31.87,31.87,0,0,1,9.65-14.24,32.19,32.19,0,0,1,9.34,14.24,29.74,29.74,0,0,1,1.2,5.3A3.31,3.31,0,0,0,75,38.88h41a5.69,5.69,0,0,0,5.73-5.65A6,6,0,0,0,121.57,32Zm-9.69-2.75a.93.93,0,0,1,.06.34.79.79,0,0,1-.15.47.9.9,0,0,1-.76.4H79.87a.93.93,0,0,1-.86-.68,40.74,40.74,0,0,0-10.54-18A31.67,31.67,0,0,1,82,8.83,32.35,32.35,0,0,1,111.88,29.23Zm-69,.53a.86.86,0,0,1-.86.68H10.62a.91.91,0,0,1-.75-.4.83.83,0,0,1-.1-.79A32.19,32.19,0,0,1,53.84,11.66,40.35,40.35,0,0,0,42.87,29.76Z" />
        </g>
    </g>
</svg>