<svg xmlns="http://www.w3.org/2000/svg" xmlns:xlink="http://www.w3.org/1999/xlink" viewBox="0 0 121.72 85.5">
    <defs>
        <style>
            .cls-1 {
                fill: url(#linear-gradient);
            }

            .cls-2 {
                fill: url(#linear-gradient-2);
            }
        </style>
        <linearGradient id="linear-gradient" x1="0.06" y1="66.27" x2="121.66" y2="66.27" gradientUnits="userSpaceOnUse">
            <stop offset="0" stop-color="#00b4ec" />
            <stop offset="1" stop-color="#1f73b8" />
        </linearGradient>
        <linearGradient id="linear-gradient-2" y1="19.44" x2="121.72" y2="19.44" gradientUnits="userSpaceOnUse">
            <stop offset="0" stop-color="#1f73b8" />
            <stop offset="1" stop-color="#00b4ec" />
        </linearGradient>
    </defs>
    <g id="Layer_2" data-name="Layer 2">
        <g id="Layer_1-2" data-name="Layer 1">
            <path class="cls-1"
                d="M120.41,49.11v0A5.73,5.73,0,0,0,115.94,47H74.77a3.34,3.34,0,0,0-3.28,2.81,29.17,29.17,0,0,1-1.33,5.36,31.84,31.84,0,0,1-9.55,14,32.27,32.27,0,0,1-9.27-14,32.68,32.68,0,0,1-1.25-5.31A3.36,3.36,0,0,0,46.79,47h-41a5.74,5.74,0,0,0-4.49,2.18A5.65,5.65,0,0,0,.2,53.93c.11.43.23.87.34,1.32a40.64,40.64,0,0,0,60,24.27,40.62,40.62,0,0,0,60.68-24.27c.09-.34.17-.68.28-1.19l.06-.23A5.61,5.61,0,0,0,120.41,49.11Zm-38.55,28a31.7,31.7,0,0,1-14-3.21A40.43,40.43,0,0,0,78.75,56.05a.91.91,0,0,1,.87-.63H111a1,1,0,0,1,.76.38,1,1,0,0,1,.09.82A32.35,32.35,0,0,1,81.86,77.13ZM53.25,73.81A32.23,32.23,0,0,1,9.94,56.64a.91.91,0,0,1,.85-1.22H41.9a.91.91,0,0,1,.87.65A40.37,40.37,0,0,0,53.25,73.81Z" />
            <path class="cls-2"
                d="M121.57,32c-.1-.44-.21-.91-.34-1.37a40.67,40.67,0,0,0-60-24.56A40.67,40.67,0,0,0,.46,30.61c-.11.46-.22.93-.34,1.46a5.64,5.64,0,0,0,1.14,4.7,5.7,5.7,0,0,0,4.47,2.11H46.9a3.32,3.32,0,0,0,3.28-2.81,30.13,30.13,0,0,1,1.29-5.34,31.87,31.87,0,0,1,9.65-14.24,32.19,32.19,0,0,1,9.34,14.24,29.74,29.74,0,0,1,1.2,5.3A3.31,3.31,0,0,0,75,38.88h41a5.69,5.69,0,0,0,5.73-5.65A6,6,0,0,0,121.57,32Zm-9.69-2.75a.93.93,0,0,1,.06.34.79.79,0,0,1-.15.47.9.9,0,0,1-.76.4H79.87a.93.93,0,0,1-.86-.68,40.74,40.74,0,0,0-10.54-18A31.67,31.67,0,0,1,82,8.83,32.35,32.35,0,0,1,111.88,29.23Zm-69,.53a.86.86,0,0,1-.86.68H10.62a.91.91,0,0,1-.75-.4.83.83,0,0,1-.1-.79A32.19,32.19,0,0,1,53.84,11.66,40.35,40.35,0,0,0,42.87,29.76Z" />
        </g>
    </g>
</svg>
